<?xml version="1.0" encoding="utf-8"?>
<!-- Generator: Adobe Illustrator 19.0.0, SVG Export Plug-In . SVG Version: 6.00 Build 0)  -->
<svg version="1.1" id="Layer_1" xmlns="http://www.w3.org/2000/svg" xmlns:xlink="http://www.w3.org/1999/xlink" x="0px" y="0px"
	 viewBox="0 0 449.3 63.9" style="enable-background:new 0 0 449.3 63.9;" xml:space="preserve">
<style type="text/css">
	.st0{fill:url(#SVGID_1_);}
	.st1{fill:#595A5C;}
	.st2{fill:#29ABE2;}
	.st3{fill:#FFFFFF;}
</style>
<g>
	
		<radialGradient id="SVGID_1_" cx="-935.5908" cy="-109.5573" r="27.3" gradientTransform="matrix(-1.044 0 0 1.0435 -1873.2415 23.3183)" gradientUnits="userSpaceOnUse">
		<stop  offset="0" style="stop-color:#FBF1DE"/>
		<stop  offset="0" style="stop-color:#7FBEDF;stop-opacity:0.5366"/>
		<stop  offset="0" style="stop-color:#29ABE2;stop-opacity:0.3"/>
		<stop  offset="0.5506" style="stop-color:#29ABE2"/>
		<stop  offset="0.5763" style="stop-color:#28A7DF"/>
		<stop  offset="0.8632" style="stop-color:#2083C5"/>
		<stop  offset="1" style="stop-color:#1D76BB"/>
	</radialGradient>
	<polygon class="st0" points="-925,-119.5 -925,-62.5 -909,-62.5 -909,-103.5 -904.5,-103.5 -904.5,-75.8 -888.5,-75.8 
		-888.5,-113.8 -873.7,-113.8 -873.7,-68.2 -878.2,-68.2 -878.2,-109.2 -884,-109.2 -884,-62.5 -868,-62.5 -868,-119.5 
		-894.2,-119.5 -894.2,-81.5 -898.8,-81.5 -898.8,-109.2 -914.7,-109.2 -914.7,-68.2 -919.3,-68.2 -919.3,-113.8 -898.8,-113.8 
		-898.8,-119.5 	"/>
	<g>
		<path class="st1" d="M-841.1-118.5l8.6,43.6l9.1-43.6h6.5v55h-5.8V-99l-6.7,35.5h-6l-6.9-36v36h-5.8v-55H-841.1z"/>
		<path class="st1" d="M-804.2-118.5v44.9c0,1.6,0.5,2.8,1.4,3.6c0.9,0.8,2.1,1.2,3.5,1.2c1.5,0,2.7-0.4,3.6-1.2
			c0.9-0.8,1.4-2,1.4-3.6v-44.9h6.3v44.9c0,1.7-0.3,3.3-0.9,4.6c-0.6,1.4-1.4,2.5-2.4,3.5c-1,1-2.2,1.7-3.6,2.2
			c-1.4,0.5-2.9,0.7-4.5,0.7c-1.6,0-3.1-0.2-4.4-0.7c-1.4-0.5-2.5-1.2-3.5-2.2c-1-1-1.8-2.1-2.4-3.5c-0.6-1.3-0.9-2.9-0.9-4.6v-44.9
			H-804.2z"/>
		<path class="st1" d="M-775.3-118.5v48.7h10.3v6.3h-16.8v-55H-775.3z"/>
		<path class="st1" d="M-746.1-118.5v6.3h-6.2v48.8h-6.5v-48.8h-6.2v-6.3H-746.1z"/>
		<path class="st1" d="M-735-118.5v55h-6.5v-55H-735z"/>
		<path class="st1" d="M-721.5-118.5l8.6,43.6l9.1-43.6h6.5v55h-5.8V-99l-6.7,35.5h-6l-6.9-36v36h-5.8v-55H-721.5z"/>
		<path class="st1" d="M-672.7-118.5v6.3h-11.7V-95h8.3v6.3h-8.3v19h11.7v6.3h-18.2v-55H-672.7z"/>
		<path class="st1" d="M-656.1-118.5c3.4,0,6,1,8,3.1c2,2.1,2.9,5.2,2.9,9.6v29.7c0,4.3-1,7.5-2.9,9.5c-2,2-4.6,3.1-8,3.1h-11.4v-55
			H-656.1z M-661-69.8h4.4c3.4,0,5.1-2,5.1-6v-30.5c0-4-1.7-6-5.1-6h-4.4V-69.8z"/>
		<path class="st1" d="M-632.5-118.5v55h-6.5v-55H-632.5z"/>
		<path class="st1" d="M-620-73.6c0,1.6,0.4,2.8,1.3,3.6c0.9,0.8,2,1.2,3.4,1.2c1.4,0,2.6-0.4,3.4-1.2c0.9-0.8,1.3-2,1.3-3.6v-1.1
			l6-1.6v2.8c0,1.7-0.3,3.2-0.9,4.5c-0.6,1.3-1.4,2.5-2.4,3.4c-1,1-2.1,1.7-3.5,2.2c-1.3,0.5-2.8,0.7-4.3,0.7
			c-1.5,0-2.9-0.2-4.2-0.7c-1.3-0.5-2.5-1.2-3.4-2.2c-1-1-1.8-2.1-2.3-3.4c-0.6-1.3-0.8-2.9-0.8-4.5v-35.2c0-1.7,0.3-3.2,0.8-4.5
			c0.6-1.3,1.3-2.5,2.3-3.4c1-0.9,2.1-1.7,3.5-2.2c1.4-0.5,2.9-0.7,4.5-0.7c3.3,0,5.9,1,7.8,2.9c1.9,2,2.9,4.6,2.9,8v1.8h-6v-1.7
			c0-1.6-0.4-2.8-1.2-3.6c-0.8-0.8-2-1.2-3.4-1.2c-1.5,0-2.7,0.4-3.6,1.2c-0.9,0.8-1.3,2-1.3,3.6V-73.6z"/>
		<path class="st1" d="M-585.7-118.5l9.6,55h-6.3l-1.3-7.9H-594l-1.2,7.9h-6.3l9.3-55H-585.7z M-593.1-76.8h8.6l-4.4-27.5
			L-593.1-76.8z"/>
		<path class="st2" d="M-565.2-118.5v48.7h10.3v6.3h-16.8v-55H-565.2z"/>
		<path class="st2" d="M-536.5-118.5l9.6,55h-6.3l-1.3-7.9h-10.3l-1.2,7.9h-6.3l9.3-55H-536.5z M-543.9-76.8h8.6l-4.4-27.5
			L-543.9-76.8z"/>
		<path class="st2" d="M-511.3-118.5c3.4,0,6,1,8,2.9c1.9,1.9,2.9,4.6,2.9,8v7.7c0,2.2-0.3,4-1,5.2c-0.7,1.2-1.7,2.1-3,2.7
			c1.5,0.6,2.7,1.5,3.4,2.8c0.8,1.3,1.2,3.2,1.2,5.6v8.8c0,3.7-1,6.5-2.9,8.4c-2,1.9-4.6,2.9-8,2.9h-11.7v-55H-511.3z M-516.2-94.6
			h4.5c1.8,0,3.1-0.4,3.8-1.1c0.7-0.8,1.1-2.1,1.1-4v-7.1c0-1.7-0.4-3.1-1.2-4.1c-0.8-1-2.1-1.5-3.9-1.5h-4.4V-94.6z M-516.2-69.6
			h4.9c3.4,0,5.1-1.9,5.1-5.6v-8.4c0-2-0.4-3.4-1.1-4.2c-0.7-0.8-2.1-1.2-3.9-1.2h-4.9V-69.6z"/>
	</g>
</g>
<g>
	<polygon class="st3" points="14.2,3.5 14.2,60.5 30.1,60.5 30.1,19.4 34.7,19.4 34.7,47.2 50.7,47.2 50.7,9.2 65.5,9.2 65.5,54.7 
		60.9,54.7 60.9,13.7 55.2,13.7 55.2,60.5 71.2,60.5 71.2,3.5 44.9,3.5 44.9,41.4 40.4,41.4 40.4,13.7 24.4,13.7 24.4,54.7 
		19.9,54.7 19.9,9.2 40.4,9.2 40.4,3.5 	"/>
	<g>
		<path class="st3" d="M98,4.5l8.6,43.6l9.1-43.6h6.5v55h-5.8V24l-6.7,35.5h-6l-6.9-36v36H91v-55H98z"/>
		<path class="st3" d="M134.9,4.5v44.9c0,1.6,0.5,2.8,1.4,3.6c0.9,0.8,2.1,1.2,3.5,1.2c1.5,0,2.7-0.4,3.6-1.2c0.9-0.8,1.4-2,1.4-3.6
			V4.5h6.3v44.9c0,1.7-0.3,3.3-0.9,4.6c-0.6,1.4-1.4,2.5-2.4,3.5c-1,1-2.2,1.7-3.6,2.2c-1.4,0.5-2.9,0.7-4.5,0.7
			c-1.6,0-3.1-0.2-4.4-0.7c-1.4-0.5-2.5-1.2-3.5-2.2c-1-1-1.8-2.1-2.4-3.5c-0.6-1.3-0.9-2.9-0.9-4.6V4.5H134.9z"/>
		<path class="st3" d="M163.9,4.5v48.7h10.3v6.3h-16.8v-55H163.9z"/>
		<path class="st3" d="M193,4.5v6.3h-6.2v48.8h-6.5V10.7h-6.2V4.5H193z"/>
		<path class="st3" d="M204.2,4.5v55h-6.5v-55H204.2z"/>
		<path class="st3" d="M217.6,4.5l8.6,43.6l9.1-43.6h6.5v55H236V24l-6.7,35.5h-6l-6.9-36v36h-5.8v-55H217.6z"/>
		<path class="st3" d="M266.4,4.5v6.3h-11.7V28h8.3v6.3h-8.3v19h11.7v6.3h-18.2v-55H266.4z"/>
		<path class="st3" d="M283.1,4.5c3.4,0,6,1,8,3.1c2,2.1,2.9,5.2,2.9,9.6v29.7c0,4.3-1,7.5-2.9,9.5c-2,2-4.6,3.1-8,3.1h-11.4v-55
			H283.1z M278.2,53.2h4.4c3.4,0,5.1-2,5.1-6V16.7c0-4-1.7-6-5.1-6h-4.4V53.2z"/>
		<path class="st3" d="M306.6,4.5v55h-6.5v-55H306.6z"/>
		<path class="st3" d="M319.1,49.4c0,1.6,0.4,2.8,1.3,3.6c0.9,0.8,2,1.2,3.4,1.2c1.4,0,2.6-0.4,3.4-1.2c0.9-0.8,1.3-2,1.3-3.6v-1.1
			l6-1.6v2.8c0,1.7-0.3,3.2-0.9,4.5c-0.6,1.3-1.4,2.5-2.4,3.4c-1,1-2.1,1.7-3.5,2.2c-1.3,0.5-2.8,0.7-4.3,0.7
			c-1.5,0-2.9-0.2-4.2-0.7c-1.3-0.5-2.5-1.2-3.4-2.2c-1-1-1.8-2.1-2.3-3.4c-0.6-1.3-0.8-2.9-0.8-4.5V14.4c0-1.7,0.3-3.2,0.8-4.5
			c0.6-1.3,1.3-2.5,2.3-3.4c1-0.9,2.1-1.7,3.5-2.2c1.4-0.5,2.9-0.7,4.5-0.7c3.3,0,5.9,1,7.8,2.9c1.9,2,2.9,4.6,2.9,8v1.8h-6v-1.7
			c0-1.6-0.4-2.8-1.2-3.6c-0.8-0.8-2-1.2-3.4-1.2c-1.5,0-2.7,0.4-3.6,1.2c-0.9,0.8-1.3,2-1.3,3.6V49.4z"/>
		<path class="st3" d="M353.4,4.5l9.6,55h-6.3l-1.3-7.9h-10.3l-1.2,7.9h-6.3l9.3-55H353.4z M346,46.1h8.6l-4.4-27.5L346,46.1z"/>
		<path class="st3" d="M373.9,4.5v48.7h10.3v6.3h-16.8v-55H373.9z"/>
		<path class="st3" d="M402.6,4.5l9.6,55h-6.3l-1.3-7.9h-10.3l-1.2,7.9h-6.3l9.3-55H402.6z M395.2,46.1h8.6l-4.4-27.5L395.2,46.1z"
			/>
		<path class="st3" d="M427.8,4.5c3.4,0,6,1,8,2.9c1.9,1.9,2.9,4.6,2.9,8V23c0,2.2-0.3,4-1,5.2c-0.7,1.2-1.7,2.1-3,2.7
			c1.5,0.6,2.7,1.5,3.4,2.8c0.8,1.3,1.2,3.2,1.2,5.6v8.8c0,3.7-1,6.5-2.9,8.4c-2,1.9-4.6,2.9-8,2.9h-11.7v-55H427.8z M423,28.4h4.5
			c1.8,0,3.1-0.4,3.8-1.1c0.7-0.8,1.1-2.1,1.1-4v-7.1c0-1.7-0.4-3.1-1.2-4.1c-0.8-1-2.1-1.5-3.9-1.5H423V28.4z M423,53.4h4.9
			c3.4,0,5.1-1.9,5.1-5.6v-8.4c0-2-0.4-3.4-1.1-4.2c-0.7-0.8-2.1-1.2-3.9-1.2H423V53.4z"/>
	</g>
</g>
</svg>
